<?xml version="1.0"?>
<svg xmlns="http://www.w3.org/2000/svg" xmlns:xlink="http://www.w3.org/1999/xlink" version="1.1" id="Capa_1" x="0px" y="0px" viewBox="0 0 512.042 512.042" style="enable-background:new 0 0 512.042 512.042;" xml:space="preserve" width="512px" height="512px" class=""><g><g>
	<path d="M256.029,266.342c21.527,0,24.741-12.156,24.741-19.401c0-9.778-7.712-41.983-24.741-41.983s-24.741,32.205-24.741,41.983   C231.287,254.186,234.501,266.342,256.029,266.342z M256.029,220.229c3.894,3.055,9.741,18.78,9.741,26.711   c0,1.961,0,4.401-9.741,4.401c-9.741,0-9.741-2.44-9.741-4.401C246.287,239.009,252.135,223.284,256.029,220.229z" data-original="#000000" class="active-path" data-old_color="#10111b" fill="#10111b"/>
	<path d="M419.45,414.261c-14.734-7.798-33.255-3.337-42.894,10.092l-25.929-14.97c-3.589-2.072-8.175-0.842-10.245,2.745   c-2.071,3.587-0.842,8.174,2.745,10.245l28.769,16.609c5.569,3.216,12.646,1.271,15.81-4.267   c5.016-8.778,16.128-11.749,24.729-7.198c13.232,7.004,13.041,25.823,0.091,32.724c-6.53,3.478-10.471,10.373-10.284,17.996   c0.369,15.056-16.329,23.059-27.752,16.489c-8.888-5.109-11.937-16.44-6.812-25.321c0.004-0.006,0.007-0.012,0.011-0.018   c0.001-0.003,0.003-0.006,0.005-0.01c3.217-5.551,1.391-12.655-4.184-15.874l-92.482-53.394l16.77-9.682l25.02,14.445   c3.581,2.067,8.17,0.85,10.245-2.745c2.071-3.587,0.842-8.174-2.745-10.245l-17.52-10.115l73.757-42.584   c9.872,13.806,28.892,18.241,44.055,9.45c21.34-12.375,22.841-45.566-0.75-58.426c-1.655-0.902-2.688-2.559-2.631-4.221   c0.918-26.972-28.735-43.694-51.35-29.5c-14.122,8.861-19.52,27.136-12.707,42.193l-28.884,16.676l7.014-53.421   c0.823-6.271,6.214-11,12.539-11h25.459c17.376,0,31.512-14.136,31.512-31.511c0-10.524-5.223-20.312-13.973-26.182   c-2.342-1.571-3.662-4.366-3.447-7.293l3.235-43.938c2.247-30.502-5.45-59.785-22.261-84.683   c-2.317-3.433-6.979-4.337-10.412-2.019c-3.434,2.318-4.338,6.979-2.02,10.413c14.906,22.079,21.73,48.078,19.733,75.188   l-3.235,43.938c-0.611,8.293,3.24,16.284,10.05,20.852c4.589,3.079,7.329,8.21,7.329,13.726c0,9.104-7.407,16.511-16.512,16.511   h-25.459c-13.827,0-25.612,10.338-27.412,24.048l-7.781,59.26c-0.284,2.166-2.146,3.799-4.329,3.799h-9.635v-19.855   c0-4.142-3.357-7.5-7.5-7.5s-7.5,3.358-7.5,7.5v19.855h-16.156v-19.855c0-4.142-3.357-7.5-7.5-7.5c-4.143,0-7.5,3.358-7.5,7.5   v19.855h-16.156v-19.855c0-4.142-3.357-7.5-7.5-7.5s-7.5,3.358-7.5,7.5v19.855h-9.635c-2.184,0-4.045-1.633-4.329-3.799   l-7.781-59.26c-1.8-13.71-13.585-24.048-27.412-24.048h-25.459c-9.104,0-16.512-7.407-16.512-16.511   c0-5.515,2.74-10.646,7.328-13.725c6.811-4.568,10.662-12.559,10.051-20.852l-3.334-45.272   c-4.892-66.426,47.761-125.448,117.202-124.566c26.878,0.329,51.865,9.409,72.259,26.259c3.192,2.638,7.92,2.189,10.56-1.005   c2.638-3.193,2.188-7.92-1.005-10.559c-23.063-19.055-51.29-29.323-81.63-29.694C180.502-0.866,119.716,64.462,125.33,140.676   l3.334,45.272c0.215,2.928-1.105,5.723-3.448,7.294c-8.749,5.87-13.972,15.658-13.972,26.182c0,17.375,14.136,31.511,31.512,31.511   h25.459c6.325,0,11.716,4.729,12.539,11.001l7.015,53.421l-28.884-16.676c6.811-15.057,1.414-33.332-12.707-42.193   c-22.66-14.224-52.266,2.576-51.35,29.5c0.057,1.663-0.976,3.32-2.632,4.222c-23.55,12.839-22.111,46.038-0.749,58.426   c15.187,8.807,34.199,4.332,44.055-9.45l73.757,42.584l-25.088,14.484c-3.587,2.071-4.816,6.658-2.745,10.245   c2.071,3.588,6.66,4.817,10.245,2.745c21.342-12.322,151.633-87.546,171.841-99.212c5.549-3.203,7.437-10.292,4.206-15.831   c-5.065-8.682-2.149-19.809,6.135-25.007c12.534-7.869,28.893,1.427,28.384,16.283c-0.253,7.395,3.75,14.255,10.444,17.903   c13.279,7.241,11.751,25.7,0.403,32.279c-8.868,5.144-20.207,2.117-25.334-6.762c-2.977-5.359-10.093-7.671-15.855-4.341   l-223.348,128.95c-5.479,3.164-7.453,10.231-4.186,15.872l0.018,0.029c5.125,8.879,2.077,20.212-6.811,25.321   c-8.138,4.676-19.719,1.872-24.788-6.002c-2.031-3.155-3.057-6.781-2.965-10.487c0.187-7.621-3.754-14.517-10.283-17.996   c-13.127-6.995-12.985-25.804,0.09-32.724c8.564-4.532,19.686-1.62,24.728,7.196c3.149,5.514,10.219,7.499,15.811,4.269   l21.199-12.24c3.587-2.071,4.816-6.658,2.745-10.245c-2.072-3.587-6.659-4.817-10.245-2.745l-18.359,10.6   c-9.634-13.427-28.159-17.889-42.894-10.092c-23.649,12.516-23.904,46.552-0.127,59.22c1.468,0.782,2.387,2.505,2.34,4.389   c-0.476,19.26,14.973,34.094,34.01,34.093c24.322-0.002,39.937-25.362,30.058-47.107l97.141-56.085l97.142,56.085   c-7.019,15.449-1.353,34.142,13.843,42.876c21.42,12.312,50.88-3.023,50.225-29.86c-0.047-1.885,0.872-3.608,2.34-4.39   C442.995,461.005,443.419,426.946,419.45,414.261z M256.029,354.767l-28.968-16.725h57.936L256.029,354.767z M140.162,324.556   c-5.461-3.153-12.532-1.384-15.855,4.341c-5.126,8.877-16.464,11.907-25.334,6.762c-11.318-6.562-12.919-25.014,0.402-32.279   c6.694-3.648,10.696-10.508,10.445-17.903c-0.509-14.851,15.839-24.153,28.385-16.284c8.042,5.047,10.96,15.621,6.645,24.073   c-0.8,1.562-3.015,4.765-1.699,9.719c0.795,2.994,2.71,5.496,5.395,7.046l92.483,53.396l-16.77,9.682L140.162,324.556z" data-original="#000000" class="active-path" data-old_color="#10111b" fill="#10111b"/>
	<path d="M200.133,135.641c-24.413,0-44.274,19.862-44.274,44.275s19.861,44.274,44.274,44.274s44.275-19.861,44.275-44.274   S224.546,135.641,200.133,135.641z M200.133,209.19c-16.142,0-29.274-13.132-29.274-29.274s13.133-29.275,29.274-29.275   c16.143,0,29.275,13.133,29.275,29.275S216.276,209.19,200.133,209.19z" data-original="#000000" class="active-path" data-old_color="#10111b" fill="#10111b"/>
	<path d="M356.198,179.916c0-24.413-19.861-44.275-44.274-44.275s-44.274,19.862-44.274,44.275s19.861,44.274,44.274,44.274   S356.198,204.329,356.198,179.916z M282.65,179.916c0-16.142,13.133-29.275,29.274-29.275s29.274,13.133,29.274,29.275   s-13.133,29.274-29.274,29.274S282.65,196.058,282.65,179.916z" data-original="#000000" class="active-path" data-old_color="#10111b" fill="#10111b"/>
</g></g> </svg>
