<?xml version="1.0"?>
<svg xmlns="http://www.w3.org/2000/svg" xmlns:xlink="http://www.w3.org/1999/xlink" version="1.1" id="Capa_1" x="0px" y="0px" viewBox="0 0 500.163 500.163" style="enable-background:new 0 0 500.163 500.163;" xml:space="preserve" width="512px" height="512px" class=""><g><path d="M279.679,326.397c4.613-4.224,7.153-9.988,7.153-16.233c0-12.131-9.869-22-22-22c-12.13,0-21.999,9.869-21.999,22  c0,6.244,2.539,12.008,7.15,16.23c3.918,3.589,5.646,8.981,4.542,14.179c0,0-9.898,46.58-11.174,52.591h42.959l-11.175-52.584  C274.03,335.381,275.759,329.986,279.679,326.397z" data-original="#000000" class="active-path" data-old_color="#27293d" fill="#27293d"/><path d="M387.832,241.164h98c0.338,0,0.668,0.029,1,0.051v-16.532c0-23.966-19.553-43.52-43.52-43.52H184.352  c-23.966,0-43.52,19.553-43.52,43.52v231.961c0,23.967,19.554,43.52,43.52,43.52h258.961c23.967,0,43.52-19.553,43.52-43.52v-16.532  c-0.332,0.022-0.663,0.051-1,0.051h-98c-8.284,0-15-6.716-15-15s6.716-15,15-15h98c0.338,0,0.668,0.029,1,0.051v-26.434  c-0.332,0.022-0.663,0.051-1,0.051h-98c-8.284,0-15-6.716-15-15s6.716-15,15-15h98c0.338,0,0.668,0.029,1,0.051v-26.433  c-0.332,0.022-0.663,0.051-1,0.051h-98c-8.284,0-15-6.716-15-15s6.716-15,15-15h98c0.338,0,0.668,0.029,1,0.051v-26.434  c-0.332,0.022-0.663,0.051-1,0.051h-98c-8.284,0-15-6.716-15-15C372.832,247.88,379.548,241.164,387.832,241.164z M316.489,417.604  c-2.849,3.517-7.132,5.56-11.657,5.56h-80c-4.525,0-8.809-2.043-11.657-5.56c-2.848-3.517-3.956-8.132-3.016-12.559  c2.56-12.043,13.43-63.225,13.43-63.225c-6.911-9.02-10.756-20.161-10.756-31.657c0-28.673,23.327-52,51.999-52  c28.673,0,52,23.327,52,52c0,11.498-3.847,22.643-10.761,31.663l13.434,63.219C320.445,409.472,319.337,414.087,316.489,417.604z" data-original="#000000" class="active-path" data-old_color="#27293d" fill="#27293d"/><path d="M136.714,0.002C68.231,0.396,13.331,56.989,13.331,125.474v47.69c0,8.284,6.716,15,15,15h25.001c8.284,0,15-6.716,15-15  l-0.001-48.006c0-37.924,30.115-69.571,68.035-70.149c38.596-0.589,70.182,30.636,70.182,69.1v26.849h55v-26.849  C261.548,55.433,205.479-0.393,136.714,0.002z" data-original="#000000" class="active-path" data-old_color="#27293d" fill="#27293d"/></g> </svg>
