<?xml version="1.0"?>
<svg xmlns="http://www.w3.org/2000/svg" xmlns:xlink="http://www.w3.org/1999/xlink" version="1.1" id="Capa_1" x="0px" y="0px" width="512px" height="512px" viewBox="0 0 42.576 42.576" style="enable-background:new 0 0 42.576 42.576;" xml:space="preserve" class=""><g><g>
	<g>
		<path d="M11.542,29.34l1.088-1.088h7.96l-5.079-9.177l-3.756,0.764c-0.985,0.2-1.771,0.942-2.028,1.914L5.268,36.305    c-0.21,0.792-0.039,1.637,0.461,2.285c0.5,0.65,1.273,1.03,2.093,1.03h3.721L11.542,29.34L11.542,29.34z" data-original="#000000" class="active-path" data-old_color="#10111b" fill="#10111b"/>
		<path d="M37.31,36.305l-4.459-14.552c-0.261-0.984-1.062-1.731-2.062-1.921l-3.742-0.708l-5.058,9.127h8.56l1.088,1.088v10.279    h3.121c0.819,0,1.593-0.38,2.093-1.03C37.35,37.938,37.518,37.097,37.31,36.305z" data-original="#000000" class="active-path" data-old_color="#10111b" fill="#10111b"/>
		<polygon points="13.719,39.62 13.417,39.62 13.417,39.624 29.159,39.623 29.159,39.62 29.46,39.62 29.46,30.43 13.719,30.43   " data-original="#000000" class="active-path" data-old_color="#10111b" fill="#10111b"/>
		<rect x="9.372" y="40.608" width="23.833" height="1.968" data-original="#000000" class="active-path" data-old_color="#10111b" fill="#10111b"/>
		<path d="M12.804,12.654c0.042,0.086,0.097,0.218,0.155,0.356c0.231,0.556,0.419,0.971,0.68,1.215    c1.209,3.945,4.329,6.676,7.644,6.666c3.301-0.011,6.383-2.766,7.547-6.722c0.256-0.246,0.438-0.659,0.663-1.211    c0.057-0.141,0.109-0.274,0.15-0.36c0.447-0.924,0.293-1.925-0.332-2.412c0-0.03,0-0.061,0-0.091    C29.296,5.198,28.657-0.025,21.211,0C13.71,0.024,13.1,5.027,13.116,10.148c0,0.031,0.001,0.061,0.001,0.091    C12.497,10.733,12.351,11.735,12.804,12.654z M13.851,11.077l0.022-0.009c0.123-0.045,0.221-0.132,0.284-0.24l1.299,0.201    c0.125,0.018,0.246-0.049,0.296-0.164l0.821-1.896c0.929,0.223,4.447,1.018,7.204,1.008c0.854-0.002,1.563-0.085,2.112-0.246    l0.521,1.257c0.043,0.106,0.146,0.172,0.255,0.171c0.023,0,0.05-0.004,0.074-0.01l1.513-0.425c0.06,0.133,0.171,0.242,0.313,0.295    l0.021,0.007c0.225,0.112,0.299,0.603,0.062,1.091c-0.057,0.118-0.116,0.267-0.182,0.425c-0.092,0.229-0.281,0.695-0.396,0.82    c-0.125,0.072-0.22,0.191-0.258,0.332c-0.989,3.578-3.68,6.083-6.539,6.093c-2.874,0.009-5.602-2.478-6.633-6.048    c-0.041-0.141-0.134-0.258-0.261-0.329c-0.116-0.125-0.312-0.594-0.407-0.824c-0.064-0.155-0.126-0.303-0.184-0.419    C13.555,11.681,13.625,11.19,13.851,11.077z" data-original="#000000" class="active-path" data-old_color="#10111b" fill="#10111b"/>
	</g>
</g></g> </svg>
