<?xml version="1.0"?>
<svg xmlns="http://www.w3.org/2000/svg" xmlns:xlink="http://www.w3.org/1999/xlink" version="1.1" id="Capa_1" x="0px" y="0px" viewBox="0 0 491.86 491.86" style="enable-background:new 0 0 491.86 491.86;" xml:space="preserve" width="512px" height="512px" class=""><g><g>
	<g>
		<polygon points="250.354,205.709 0,205.709 0,232.497 21.404,232.497 21.404,476.057 198.398,476.057     198.398,232.497 250.354,232.497   " data-original="#010002" class="active-path" data-old_color="#10111b" fill="#10111b"/>
		<path d="M379.818,327.33c0.046,0,0.129,0.03,0.183,0.03c32.649,0.951,51.284-8.78,54.174-34.646    l13.244-119.099c2.47-22.19-15.224-39.122-32.9-45.6l-0.143-0.046c0,0-6.303-2.05-12.067-2.836    c-6.008-0.801-11.922,0.282-11.922,0.282c-13.808,1.61-27.448,11.374-27.448,11.374c-25.395,18.087-64.764,21.995-117.099,11.602    c-13.166-2.649-25.965,5.946-28.58,19.107c-2.616,13.164,5.938,25.955,19.106,28.572c21.94,4.375,42.346,6.539,61.17,6.539    c17.107,0,32.475-1.894,46.921-5.497l-0.115,1.68l-8.44,75.909c-44.21,1.597-72.062,10.705-82.979,27.249    c-14.765,22.482-38.754,113.12-45.75,140.925c-3.616,14.363,5.113,28.938,19.478,32.563c2.185,0.549,4.39,0.823,6.561,0.823    c12.004,0,22.952-8.122,26.008-20.285c12.329-48.979,29.363-99.745,37.141-115.817    C302.805,326.181,345.436,325.437,379.818,327.33z" data-original="#010002" class="active-path" data-old_color="#10111b" fill="#10111b"/>
		<circle cx="395.883" cy="67.804" r="54.305" data-original="#010002" class="active-path" data-old_color="#10111b" fill="#10111b"/>
		<path d="M484.646,274.65l7.213-93.507c0.019-0.53-0.18-1.045-0.548-1.427    c-0.369-0.382-0.876-0.598-1.407-0.598h-29.679c-1.054,0-1.918,0.834-1.956,1.888l-6.706,93.575    c-0.883,28.85-9.383,64.332-57.84,64.332c-0.687,0-53.585-0.119-53.585-0.119c-0.001,0-0.001,0-0.001,0    c-0.52,0-1.016,0.206-1.384,0.572c-0.366,0.367-0.573,0.866-0.573,1.385v28.914c0,1.081,0.876,1.957,1.957,1.957l48.645-0.002    v66.461h-15.273c-19.994,0-36.885,17.552-36.885,38.325c0,1.081,0.876,1.956,1.956,1.956h19.266c1.081,0,1.957-0.875,1.957-1.956    c0-7.642,6.272-14.098,13.698-14.098h63.341c7.43,0,13.706,6.456,13.706,14.098c0,1.081,0.877,1.956,1.957,1.956h19.273    c1.08,0,1.956-0.875,1.956-1.956c0-20.773-16.895-38.325-36.893-38.325h-15.259v-70.026    C469.347,366.764,480.43,319.431,484.646,274.65z" data-original="#010002" class="active-path" data-old_color="#10111b" fill="#10111b"/>
		<path d="M203.534,177.154h-91.717L80.775,63.399c-0.219-0.8-1.043-1.273-1.842-1.052l-16.552,4.516    c-0.384,0.105-0.71,0.358-0.907,0.703c-0.198,0.346-0.25,0.755-0.145,1.139L96.12,196.193c0.178,0.652,0.771,1.105,1.447,1.105    h105.968c0.829,0,1.5-0.671,1.5-1.5v-17.145C205.034,177.825,204.363,177.154,203.534,177.154z" data-original="#010002" class="active-path" data-old_color="#10111b" fill="#10111b"/>
	</g>
</g></g> </svg>
